<svg width="26" height="18" viewBox="0 0 26 18" fill="none" xmlns="http://www.w3.org/2000/svg">
<path d="M24.9167 10.6801H1.08333C0.485331 10.6801 0 10.0081 0 9.18005C0 8.35205 0.485331 7.68005 1.08333 7.68005H24.9167C25.5147 7.68005 26 8.35205 26 9.18005C26 10.0081 25.5147 10.6801 24.9167 10.6801Z" fill="white"/>
<path d="M24.9167 3.96875H1.08333C0.485331 3.96875 0 3.29675 0 2.46875C0 1.64075 0.485331 0.96875 1.08333 0.96875H24.9167C25.5147 0.96875 26 1.64075 26 2.46875C26 3.29675 25.5147 3.96875 24.9167 3.96875Z" fill="white"/>
<path d="M24.9167 17.3914H1.08333C0.485331 17.3914 0 16.7194 0 15.8914C0 15.0634 0.485331 14.3914 1.08333 14.3914H24.9167C25.5147 14.3914 26 15.0634 26 15.8914C26 16.7194 25.5147 17.3914 24.9167 17.3914Z" fill="white"/>
</svg>
