<svg width="21" height="21" viewBox="0 0 21 21" fill="none" xmlns="http://www.w3.org/2000/svg">
<g clip-path="url(#clip0)">
<path d="M19.315 13.7841C18.0293 13.7841 16.7669 13.583 15.5706 13.1877C14.9741 12.9843 14.2951 13.1421 13.906 13.5386L11.5448 15.3211C8.80638 13.8593 7.1196 12.1731 5.67782 9.45531L7.40786 7.15559C7.85734 6.70671 8.01855 6.05101 7.8254 5.43577C7.42837 4.2332 7.22668 2.97139 7.22668 1.68514C7.22673 0.755945 6.47079 0 5.54165 0H1.68503C0.755945 0 0 0.755945 0 1.68503C0 12.3355 8.66458 21 19.315 21C20.2441 21 21.0001 20.2441 21.0001 19.3149V15.4691C21 14.54 20.2441 13.7841 19.315 13.7841ZM19.8334 19.315C19.8334 19.6009 19.6009 19.8334 19.315 19.8334C9.3077 19.8334 1.1667 11.6923 1.1667 1.68509C1.1667 1.39912 1.39912 1.1667 1.68509 1.1667H5.5417C5.82766 1.1667 6.06009 1.39912 6.06009 1.68509C6.06009 3.09613 6.28168 4.48098 6.71519 5.79294C6.77556 5.98664 6.72656 6.18712 6.53062 6.39111L4.52539 9.04679C4.39097 9.22507 4.36986 9.46378 4.4707 9.66257C6.10734 12.8795 8.09605 14.8682 11.3357 16.5281C11.5328 16.6312 11.7743 16.6096 11.9532 16.4746L14.6699 14.4164C14.8072 14.2792 15.0129 14.2302 15.1986 14.2934C16.5196 14.7297 17.9045 14.9508 19.315 14.9508C19.6009 14.9508 19.8334 15.1832 19.8334 15.4692V19.315Z" fill="white"/>
</g>
<defs>
<clipPath id="clip0">
<rect width="21" height="21" fill="white"/>
</clipPath>
</defs>
</svg>
