<svg width="27" height="27" viewBox="0 0 27 27" fill="none" xmlns="http://www.w3.org/2000/svg">
<path d="M24.9779 4.65509H2.0221C0.905291 4.65509 0 5.56038 0 6.67719V20.3227C0 21.4395 0.905291 22.3448 2.0221 22.3448H24.9779C26.0947 22.3448 27 21.4396 27 20.3227V6.67719C27 5.56038 26.0947 4.65509 24.9779 4.65509Z" fill="#F5F5F5"/>
<path d="M16.0845 9.62565C13.9454 8.1996 11.0562 8.78263 9.63115 10.918C8.91633 11.9838 9.2069 13.432 10.2764 14.145C11.345 14.8581 12.7886 14.5685 13.5016 13.4989C14.2147 12.4294 15.6592 12.1434 16.7278 12.8527C17.7982 13.5657 18.0861 15.014 17.3721 16.0798C18.7981 13.941 18.2217 11.0517 16.0845 9.62565Z" fill="#FF4B55"/>
<path d="M9.63111 10.918C8.91629 11.9838 9.20686 13.4321 10.2763 14.1451C11.345 14.8581 12.7886 14.5686 13.5016 13.499C14.2146 12.4295 15.6592 12.1435 16.7278 12.8528C17.7982 13.5658 18.0861 15.0141 17.372 16.0799C15.9479 18.2226 13.0597 18.7983 10.9206 17.3722C8.78351 15.9464 8.20512 13.0571 9.63111 10.918Z" fill="#41479B"/>
<path d="M18.4527 7.86739L19.2983 9.1384C19.3693 9.24518 19.3406 9.38936 19.234 9.46071L19.0196 9.6043C18.9126 9.67592 18.7678 9.64712 18.6964 9.53997L17.8497 8.26928C17.7785 8.16239 17.8074 8.01795 17.9142 7.9466L18.1297 7.80274C18.2368 7.73128 18.3814 7.76029 18.4527 7.86739Z" fill="#464655"/>
<path d="M19.7574 9.82702L20.6058 11.0972C20.6774 11.2045 20.6482 11.3496 20.5405 11.4207L20.3252 11.563C20.2183 11.6337 20.0745 11.6046 20.0033 11.4982L19.1555 10.2293C19.0841 10.1224 19.1128 9.97789 19.2196 9.90644L19.4345 9.76279C19.5414 9.69134 19.686 9.72008 19.7574 9.82702Z" fill="#464655"/>
<path d="M19.3582 7.26317L21.5112 10.4944C21.5825 10.6013 21.5536 10.7458 21.4466 10.8171L21.2303 10.9613C21.1234 11.0326 20.9788 11.0037 20.9075 10.8967L18.7537 7.66575C18.6824 7.55875 18.7114 7.41415 18.8184 7.34285L19.0354 7.19841C19.1424 7.12738 19.2869 7.15623 19.3582 7.26317Z" fill="#464655"/>
<path d="M20.2611 6.65986L21.1085 7.93335C21.1799 8.04061 21.1506 8.18542 21.0431 8.25645L20.8276 8.39884C20.7206 8.4695 20.5767 8.44044 20.5056 8.33376L19.6575 7.06196C19.5862 6.95502 19.6151 6.81047 19.7221 6.73912L19.9382 6.59505C20.0452 6.52376 20.1898 6.55271 20.2611 6.65986Z" fill="#464655"/>
<path d="M21.5665 8.62366L22.4127 9.8945C22.4839 10.0013 22.455 10.1456 22.3483 10.217L22.1334 10.3606C22.0264 10.4321 21.8816 10.4033 21.8103 10.2961L20.9642 9.02528C20.8931 8.91844 20.9219 8.77416 21.0285 8.70281L21.2434 8.55916C21.3505 8.4876 21.4952 8.5164 21.5665 8.62366Z" fill="#464655"/>
<path d="M6.99889 15.5029L9.15172 18.7306C9.22302 18.8375 9.19423 18.982 9.08728 19.0534L8.8717 19.1973C8.76476 19.2687 8.62021 19.2399 8.54881 19.1329L6.39598 15.9052C6.32463 15.7983 6.35348 15.6538 6.46042 15.5825L6.67605 15.4385C6.78294 15.3671 6.92754 15.3959 6.99889 15.5029Z" fill="#464655"/>
<path d="M6.09512 16.1066L6.94035 17.3744C7.01159 17.4813 6.98285 17.6255 6.87617 17.697L6.66175 17.8405C6.55486 17.9121 6.41015 17.8833 6.3387 17.7763L5.49247 16.5089C5.42107 16.402 5.44986 16.2574 5.55681 16.186L5.77228 16.0422C5.87917 15.9708 6.02377 15.9997 6.09512 16.1066Z" fill="#464655"/>
<path d="M7.40132 18.067L8.24749 19.338C8.31869 19.4448 8.28984 19.5891 8.18305 19.6604L7.968 19.8043C7.861 19.8758 7.71635 19.8469 7.64495 19.7398L6.79825 18.4691C6.727 18.3622 6.75585 18.2177 6.86269 18.1464L7.07827 18.0025C7.18532 17.9309 7.32997 17.9599 7.40132 18.067Z" fill="#464655"/>
<path d="M5.19126 16.7102L7.34272 19.938C7.41397 20.0449 7.38512 20.1893 7.27844 20.2607L7.06344 20.4044C6.95649 20.4759 6.81184 20.4471 6.74044 20.3401L4.58772 17.1126C4.51637 17.0057 4.54532 16.8611 4.65227 16.7898L4.86858 16.6456C4.97542 16.5743 5.11997 16.6032 5.19126 16.7102Z" fill="#464655"/>
<path d="M6.39637 11.0974L8.54888 7.8671C8.62023 7.76005 8.76482 7.73115 8.87182 7.80255L9.08735 7.94646C9.19424 8.01781 9.22303 8.16231 9.15179 8.2692L6.99843 11.4978C6.92724 11.6044 6.78322 11.6334 6.67633 11.5627L6.46165 11.4206C6.35418 11.3495 6.32496 11.2046 6.39637 11.0974Z" fill="#464655"/>
<path d="M5.4921 10.4945L7.64498 7.26356C7.71633 7.15651 7.86103 7.12761 7.96803 7.19912L8.18303 7.34287C8.28976 7.41422 8.31856 7.55855 8.24736 7.66539L6.09506 10.8965C6.02371 11.0036 5.87911 11.0325 5.77212 10.9611L5.55654 10.8172C5.4497 10.7459 5.42085 10.6014 5.4921 10.4945Z" fill="#464655"/>
<path d="M4.58733 9.89567L6.74042 6.66147C6.81177 6.55437 6.95653 6.52542 7.06353 6.59692L7.27852 6.74068C7.38521 6.81203 7.41405 6.9562 7.34297 7.0631L5.19119 10.2978C5.11995 10.4048 4.9753 10.4339 4.8683 10.3625L4.65209 10.2184C4.54509 10.1471 4.51619 10.0026 4.58733 9.89567Z" fill="#464655"/>
<path d="M17.8501 18.7306L18.6964 17.4632C18.7678 17.3562 18.9125 17.3274 19.0194 17.399L19.2338 17.5425C19.3405 17.6139 19.3692 17.7582 19.298 17.865L18.4527 19.1328C18.3814 19.2398 18.2368 19.2687 18.1298 19.1973L17.9144 19.0534C17.8075 18.9821 17.7787 18.8376 17.8501 18.7306Z" fill="#464655"/>
<path d="M19.1553 16.777L20.0029 15.5032C20.0742 15.3962 20.2188 15.3672 20.3258 15.4385L20.5418 15.5825C20.6488 15.6538 20.6777 15.7985 20.6063 15.9054L19.7569 17.1772C19.6857 17.2838 19.5417 17.3128 19.4348 17.2419L19.2206 17.0999C19.1132 17.0287 19.084 16.8841 19.1553 16.777Z" fill="#464655"/>
<path d="M18.7537 19.3376L19.6004 18.0668C19.6717 17.9598 19.8163 17.9309 19.9233 18.0022L20.1397 18.1465C20.2466 18.2178 20.2755 18.3622 20.2043 18.4692L19.3581 19.7401C19.2868 19.8471 19.1424 19.8761 19.0353 19.8049L18.8183 19.6604C18.7114 19.5892 18.6824 19.4446 18.7537 19.3376Z" fill="#464655"/>
<path d="M20.0603 17.374L20.9075 16.1062C20.9789 15.9994 21.1233 15.9706 21.2302 16.0419L21.4465 16.186C21.5536 16.2574 21.5824 16.402 21.5109 16.509L20.6637 17.7769C20.5923 17.8837 20.4479 17.9125 20.341 17.8413L20.1247 17.6971C20.0176 17.6257 19.9888 17.481 20.0603 17.374Z" fill="#464655"/>
<path d="M19.6578 19.9378L20.5055 18.6692C20.5767 18.5628 20.7205 18.5338 20.8274 18.6044L21.0428 18.7468C21.1504 18.8179 21.1797 18.9628 21.1082 19.0701L20.2611 20.3403C20.1898 20.4473 20.0452 20.4761 19.9383 20.4049L19.7222 20.2608C19.6151 20.1894 19.5863 20.0448 19.6578 19.9378Z" fill="#464655"/>
<path d="M20.9647 17.9808L21.8103 16.7107C21.8817 16.6035 22.0264 16.5746 22.1334 16.6462L22.3481 16.7897C22.4549 16.8611 22.4837 17.0055 22.4124 17.1124L21.566 18.3808C21.4949 18.4875 21.3507 18.5165 21.2438 18.4456L21.0297 18.3038C20.9225 18.2326 20.8934 18.0879 20.9647 17.9808Z" fill="#464655"/>
</svg>
