<svg width="21" height="20" viewBox="0 0 21 20" fill="none" xmlns="http://www.w3.org/2000/svg">
<path d="M19.3149 13.1277C18.0292 13.1277 16.7668 12.9362 15.5705 12.5597C14.9741 12.366 14.2951 12.5163 13.906 12.8939L11.5447 14.5915C8.80636 13.1994 7.11958 11.5934 5.67781 9.00505L7.40784 6.81484C7.85732 6.38734 8.01853 5.76286 7.82538 5.17693C7.42835 4.03161 7.22666 2.8299 7.22666 1.6049C7.22672 0.719948 6.47077 0 5.54163 0H1.68503C0.755943 0 0 0.719948 0 1.60479C0 11.7481 8.66456 20 19.3149 20C20.2441 20 21 19.2801 21 18.3952V14.7325C20.9999 13.8477 20.244 13.1277 19.3149 13.1277ZM19.8333 18.3952C19.8333 18.6676 19.6009 18.8889 19.3149 18.8889C9.30768 18.8889 1.1667 11.1355 1.1667 1.60484C1.1667 1.3325 1.39912 1.11115 1.68508 1.11115H5.54169C5.82765 1.11115 6.06007 1.3325 6.06007 1.60484C6.06007 2.9487 6.28166 4.2676 6.71517 5.51708C6.77554 5.70156 6.72655 5.8925 6.5306 6.08677L4.52538 8.61599C4.39096 8.78578 4.36985 9.01312 4.47069 9.20245C6.10732 12.2661 8.09603 14.1602 11.3357 15.7411C11.5327 15.8393 11.7743 15.8187 11.9532 15.6901L14.6699 13.7299C14.8071 13.5992 15.0128 13.5526 15.1985 13.6128C16.5196 14.0283 17.9044 14.2389 19.3149 14.2389C19.6009 14.2389 19.8333 14.4602 19.8333 14.7326V18.3952Z" fill="white"/>
</svg>
